<?xml version="1.0" encoding="UTF-8" standalone="no"?><!DOCTYPE svg PUBLIC "-//W3C//DTD SVG 1.1//EN" "http://www.w3.org/Graphics/SVG/1.1/DTD/svg11.dtd"><svg width="100%" height="100%" viewBox="0 0 1008 1008" version="1.1" xmlns="http://www.w3.org/2000/svg" xmlns:xlink="http://www.w3.org/1999/xlink" xml:space="preserve" xmlns:serif="http://www.serif.com/" style="fill-rule:evenodd;clip-rule:evenodd;stroke-linejoin:round;stroke-miterlimit:2;"><g><path d="M322.922,764.544L339.649,747.665C377.238,773.556 420.888,790.367 465.909,796.288L466.474,796.362L466.474,752.173L466.05,752.108C413.579,743.995 365.913,719.574 328.205,681.483C290.495,643.391 266.339,595.262 258.35,542.298L258.286,541.872L214.486,541.872L214.558,542.435C220.4,587.957 237.07,632.089 262.773,670.088L246.045,686.968L198.579,639.072L198.579,812.434L370.385,812.434L322.922,764.544ZM685.079,243.953L668.352,260.831C630.766,234.941 587.116,218.13 542.092,212.209L541.527,212.135L541.527,256.323L541.951,256.388C594.338,264.488 641.946,288.852 679.63,326.844C717.31,364.833 741.497,412.85 749.578,465.703L749.642,466.127L793.453,466.127L793.38,465.563C787.484,420.228 770.836,376.269 745.228,338.408L761.957,321.527L809.423,369.423L809.423,196.062L637.617,196.062L685.079,243.953ZM761.956,686.968L745.233,670.094C770.94,632.095 787.613,587.96 793.455,542.436L793.527,541.873L749.729,541.873L749.666,542.299C741.677,595.26 717.52,643.387 679.804,681.477C642.094,719.561 594.425,743.981 541.951,752.095L541.527,752.16L541.527,796.353L542.092,796.279C587.111,790.358 630.76,773.55 668.349,747.664L685.078,764.544L637.617,812.436L809.423,812.436L809.422,639.074L761.956,686.968ZM246.044,321.528L262.773,338.408C237.165,376.267 220.517,420.227 214.621,465.564L214.547,466.128L258.358,466.128L258.423,465.704C266.505,412.851 290.693,364.834 328.373,326.845C366.056,288.853 413.665,264.489 466.05,256.389L466.474,256.324L466.474,212.136L465.909,212.21C420.886,218.131 377.236,234.941 339.648,260.831L322.922,243.954L370.384,196.062L198.577,196.062L198.578,369.424L246.044,321.528ZM287.907,504.249C287.907,562.49 310.384,617.246 351.198,658.43C392.013,699.615 446.279,722.296 504,722.296C561.721,722.296 615.987,699.614 656.802,658.43C697.615,617.246 720.093,562.491 720.093,504.249C720.093,446.007 697.615,391.251 656.802,350.067C615.988,308.882 561.722,286.201 504,286.201C446.279,286.201 392.013,308.883 351.198,350.067C310.384,391.251 287.907,446.007 287.907,504.249ZM827.949,335.345L827.094,334.482L827.094,466.128L870.013,466.128L870.013,445.852L927.639,503.999L870.013,562.148L870.013,541.872L827.094,541.872L827.094,673.518L994.74,504.352L995.089,504L827.949,335.345ZM12.911,504L180.051,672.654L180.906,673.518L180.906,541.872L137.988,541.872L137.988,562.148L80.361,504L137.988,445.852L137.988,466.128L180.906,466.128L180.906,334.482L13.26,503.648L12.911,504ZM541.871,870.013L562.147,870.013L504,927.639L445.851,870.013L466.127,870.013L466.127,827.094L334.481,827.094L503.647,994.74L503.999,995.089L673.517,827.094L541.871,827.094L541.871,870.013ZM466.127,137.988L445.851,137.988L503.999,80.361L562.147,137.988L541.871,137.988L541.871,180.906L673.517,180.906L504.351,13.26L503.999,12.911L334.481,180.906L466.127,180.906L466.127,137.988Z" style="fill:#fff;fill-rule:nonzero;"/></g></svg>