<?xml version="1.0" encoding="UTF-8" standalone="no"?><!DOCTYPE svg PUBLIC "-//W3C//DTD SVG 1.1//EN" "http://www.w3.org/Graphics/SVG/1.1/DTD/svg11.dtd"><svg width="100%" height="100%" viewBox="0 0 834 834" version="1.1" xmlns="http://www.w3.org/2000/svg" xmlns:xlink="http://www.w3.org/1999/xlink" xml:space="preserve" xmlns:serif="http://www.serif.com/" style="fill-rule:evenodd;clip-rule:evenodd;stroke-linejoin:round;stroke-miterlimit:2;"><g transform="matrix(1,0,0,1,-2000.73,0)"><g id="Circle-3" serif:id="Circle 3" transform="matrix(0.104167,0,0,0.185185,1145.7,0)"><rect x="8208.33" y="0" width="8000" height="4500" style="fill:none;"/><g transform="matrix(42.8207,0,0,24.0866,-28933.8,-10522.9)"><path d="M960.794,436.882C936.887,436.882 912.987,445.997 894.747,464.237C858.267,500.717 858.267,559.863 894.747,596.343C931.227,632.823 990.373,632.823 1026.85,596.343C1063.33,559.863 1063.33,500.717 1026.85,464.237C1008.61,445.997 984.7,436.882 960.794,436.882ZM960.794,477.699C974.253,477.699 987.711,482.828 997.98,493.097C1018.52,513.635 1018.52,546.932 997.98,567.469C977.442,588.007 944.146,588.007 923.608,567.469C903.07,546.932 903.07,513.635 923.608,493.097C933.877,482.828 947.335,477.699 960.794,477.699Z" style="fill-rule:nonzero;"/></g></g></g></svg>