<?xml version="1.0" encoding="UTF-8" standalone="no"?><!DOCTYPE svg PUBLIC "-//W3C//DTD SVG 1.1//EN" "http://www.w3.org/Graphics/SVG/1.1/DTD/svg11.dtd"><svg width="100%" height="100%" viewBox="0 0 834 834" version="1.1" xmlns="http://www.w3.org/2000/svg" xmlns:xlink="http://www.w3.org/1999/xlink" xml:space="preserve" xmlns:serif="http://www.serif.com/" style="fill-rule:evenodd;clip-rule:evenodd;stroke-linejoin:round;stroke-miterlimit:2;"><g transform="matrix(1,0,0,1,-1009.55,0)"><g id="Circle-2" serif:id="Circle 2" transform="matrix(0.104167,0,0,0.185185,154.511,0)"><rect x="8208.33" y="0" width="8000" height="4500" style="fill:none;"/><clipPath id="_clip1"><rect x="8208.33" y="0" width="8000" height="4500"/></clipPath><g clip-path="url(#_clip1)"><g transform="matrix(42.1021,0,0,23.6824,-16486.7,-10361.8)"><path d="M681.471,437.56C657.149,437.56 632.944,446.78 614.387,465.337C577.272,502.451 577.273,562.567 614.387,599.681C651.501,636.795 711.616,636.795 748.73,599.681C785.844,562.567 785.844,502.451 748.73,465.337C730.173,446.78 705.793,437.56 681.471,437.56ZM681.471,480.012C694.933,480.012 708.41,485.114 718.682,495.386C739.225,515.928 739.225,549.265 718.682,569.807C698.139,590.35 664.802,590.35 644.26,569.807C623.717,549.265 623.717,515.928 644.26,495.386C654.531,485.114 668.009,480.012 681.471,480.012Z" style="fill-rule:nonzero;"/></g></g></g></g></svg>