<?xml version="1.0" encoding="UTF-8" standalone="no"?><!DOCTYPE svg PUBLIC "-//W3C//DTD SVG 1.1//EN" "http://www.w3.org/Graphics/SVG/1.1/DTD/svg11.dtd"><svg width="100%" height="100%" viewBox="0 0 834 834" version="1.1" xmlns="http://www.w3.org/2000/svg" xmlns:xlink="http://www.w3.org/1999/xlink" xml:space="preserve" xmlns:serif="http://www.serif.com/" style="fill-rule:evenodd;clip-rule:evenodd;stroke-linejoin:round;stroke-miterlimit:2;"><g transform="matrix(1,0,0,1,-2955.31,0)"><g id="Circle-4" serif:id="Circle 4" transform="matrix(0.104167,0,0,0.185185,2100.28,0)"><rect x="8208.33" y="0" width="8000" height="4500" style="fill:none;"/><g transform="matrix(42.102,0,0,23.6824,-39999.9,-10276.4)"><path d="M1240.05,433.93C1215.73,433.93 1191.41,443.2 1172.86,461.751C1135.76,498.854 1135.76,559.009 1172.86,596.112C1209.96,633.215 1270.12,633.215 1307.22,596.112C1344.33,559.009 1344.33,498.854 1307.22,461.751C1288.67,443.2 1264.36,433.93 1240.05,433.93ZM1240.05,465.174C1256.37,465.174 1272.68,471.398 1285.13,483.847C1310.03,508.745 1310.03,549.118 1285.13,574.017C1260.23,598.915 1219.86,598.915 1194.96,574.017C1170.06,549.118 1170.06,508.745 1194.96,483.847C1207.41,471.398 1223.73,465.174 1240.05,465.174Z" style="fill-rule:nonzero;"/></g></g></g></svg>