<?xml version="1.0" encoding="UTF-8" standalone="no"?><!DOCTYPE svg PUBLIC "-//W3C//DTD SVG 1.1//EN" "http://www.w3.org/Graphics/SVG/1.1/DTD/svg11.dtd"><svg width="100%" height="100%" viewBox="0 0 834 834" version="1.1" xmlns="http://www.w3.org/2000/svg" xmlns:xlink="http://www.w3.org/1999/xlink" xml:space="preserve" xmlns:serif="http://www.serif.com/" style="fill-rule:evenodd;clip-rule:evenodd;stroke-linejoin:round;stroke-miterlimit:2;"><g transform="matrix(1,0,0,1,-3936.52,0)"><g id="Circle-5" serif:id="Circle 5" transform="matrix(0.104167,0,0,0.185185,3081.49,0)"><rect x="8208.33" y="0" width="8000" height="4500" style="fill:none;"/><clipPath id="_clip1"><rect x="8208.33" y="0" width="8000" height="4500"/></clipPath><g clip-path="url(#_clip1)"><g transform="matrix(42.8236,0,0,24.0883,-52852.9,-10465.9)"><path d="M1519.28,434.477C1495.38,434.477 1471.48,443.605 1453.24,461.845C1416.76,498.325 1416.76,557.458 1453.24,593.938C1489.72,630.418 1548.85,630.418 1585.33,593.938C1621.81,557.458 1621.81,498.325 1585.33,461.845C1567.09,443.605 1543.19,434.477 1519.28,434.477ZM1519.28,453.013C1538.45,453.013 1557.62,460.32 1572.24,474.94C1601.48,504.181 1601.48,551.602 1572.24,580.843C1543,610.083 1495.57,610.083 1466.33,580.843C1437.09,551.602 1437.09,504.181 1466.33,474.94C1480.95,460.32 1500.12,453.013 1519.28,453.013Z" style="fill-rule:nonzero;"/></g></g></g></g></svg>