<?xml version="1.0" encoding="UTF-8" standalone="no"?><!DOCTYPE svg PUBLIC "-//W3C//DTD SVG 1.1//EN" "http://www.w3.org/Graphics/SVG/1.1/DTD/svg11.dtd"><svg width="100%" height="100%" viewBox="0 0 7459 1167" version="1.1" xmlns="http://www.w3.org/2000/svg" xmlns:xlink="http://www.w3.org/1999/xlink" xml:space="preserve" xmlns:serif="http://www.serif.com/" style="fill-rule:evenodd;clip-rule:evenodd;stroke-linejoin:round;stroke-miterlimit:2;"><g transform="matrix(1,0,0,1,-270.833,-1667.85)"><path d="M455.579,2140.79L270.833,2251.17L455.579,2361.41L438.357,2298.66L3174.96,2298.53L415.133,2284.18C415.1,2284.2 417.917,2294.4 421.395,2307.01C424.874,2319.62 427.722,2330 427.658,2329.97L317.802,2251.3L317.802,2251.17L427.658,2172.49C427.722,2172.47 424.874,2182.85 421.395,2195.46C417.917,2208.07 415.1,2218.27 415.133,2218.29L3174.96,2203.94L438.357,2203.55L455.579,2140.79ZM7544.42,2140.79L7561.64,2203.55L4825.04,2203.94L7584.87,2218.29C7584.9,2218.27 7582.08,2208.07 7578.61,2195.46C7575.13,2182.85 7572.28,2172.47 7572.34,2172.49L7682.2,2251.17L7682.2,2251.3L7572.34,2329.97C7572.28,2330 7575.12,2319.62 7578.61,2307.01C7582.08,2294.4 7584.9,2284.2 7584.87,2284.18L4825.04,2298.53L7561.64,2298.66L7544.42,2361.41L7729.17,2251.17L7544.42,2140.79ZM3831.82,1667.97C3821.16,1667.7 3810.42,1667.88 3799.6,1668.62C3710.76,1674.69 3608.56,1699.39 3578.58,1758.64C3561.82,1763.09 3512.86,1748.16 3510.61,1770.91C3508.4,1793.13 3559.52,1786.71 3571.28,1787.87C3579.98,1788.73 3592.11,1793.93 3600.5,1792.7C3613.55,1790.78 3631.72,1773.75 3649.03,1763.6C3684.77,1742.67 3718.96,1724.5 3755.89,1709.98C3790.14,1696.52 3809.65,1681.07 3845.78,1688.06C3797.21,1703.34 3751.4,1724.24 3706.96,1745.47C3662.53,1766.69 3619.5,1788.33 3576.23,1804.96C3576.78,1812.53 3577.91,1819.44 3578.97,1826.49C3580.04,1833.54 3581,1840.62 3581.06,1848.67C3586.18,1848.81 3590.01,1850.25 3593.06,1852.45C3596.12,1854.66 3598.43,1857.74 3600.5,1860.93C3669.95,1838.05 3736.95,1812.73 3808.34,1791.79C3879.73,1770.84 3955.53,1754.29 4042.53,1748.99C4046,1753.23 4050.44,1756.34 4054.27,1760.21C4058.11,1764.08 4061.33,1768.68 4061.97,1775.74C3993.9,1770.81 3931.8,1777.05 3874.36,1789.05C3816.91,1801.04 3764.11,1818.75 3714.66,1836.54C3705.04,1836.48 3689.79,1835.51 3683.09,1839.02C3656.03,1853.15 3620.32,1866.5 3600.5,1882.85C3672.01,1869.25 3741.92,1845.61 3816.69,1826.88C3891.46,1808.15 3971.11,1794.22 4061.97,1800C4064.45,1800.36 4065.61,1802.01 4066.8,1803.66C4067.99,1805.3 4069.15,1806.95 4071.63,1807.31C4069.39,1791.51 4074.68,1785.13 4081.8,1785.26C4088.92,1785.39 4097.87,1792.07 4103.2,1802.48C4097.9,1802.44 4093.23,1803.04 4088.85,1803.92C4084.47,1804.8 4080.34,1805.93 4076.45,1807.31C4074.78,1811.15 4076.33,1814.88 4077.5,1817.88C4078.67,1820.88 4079.46,1823.23 4076.45,1824.4C3974.81,1814.55 3890.55,1831.51 3809.38,1846.32C3766.83,1854.09 3721.81,1864.41 3683.09,1875.55C3655.92,1883.36 3627.81,1890.53 3607.81,1907.12C3631.85,1908.9 3649.67,1901.24 3675.78,1894.99C3791.62,1867.25 3941.88,1833.41 4076.45,1848.67C4076.72,1849.62 4077.22,1850.34 4078.02,1850.76C4078.81,1851.18 4080,1851.35 4081.41,1851.15C4082.89,1854.94 4084.25,1858.82 4085.2,1863.15C4086.14,1867.48 4086.64,1872.22 4086.24,1877.89C3972.15,1864.02 3848.33,1881.15 3751.06,1894.99C3701.48,1902.04 3652.77,1913.1 3617.46,1933.87C3680.33,1926.88 3754.62,1912.73 3831.56,1903.73C3908.51,1894.73 3988.17,1890.87 4061.97,1904.64C4065,1903.62 4068.16,1902.87 4071.76,1902.42C4075.36,1901.98 4079.34,1901.92 4083.76,1902.29C4084.45,1907.69 4084.67,1913.56 4086.11,1918.21C4087.54,1922.86 4090.17,1926.21 4095.89,1926.56C4101.42,1909.01 4102.85,1891.14 4103.07,1875.94C4103.29,1860.74 4102.31,1848.19 4103.2,1841.36C4107.89,1841.53 4110.4,1843.92 4111.68,1847.5C4112.97,1851.08 4113.1,1855.95 4112.99,1860.93C4115.1,1861.03 4116.97,1860.81 4118.6,1860.41C4120.23,1860.02 4121.56,1859.4 4122.64,1858.45C4119.51,1862.21 4120.61,1865.61 4123.16,1868.5C4125.71,1871.39 4129.77,1873.83 4132.43,1875.55C4129.38,1877.9 4131.23,1880.33 4133.86,1883.11C4136.5,1885.9 4139.81,1888.97 4139.6,1892.51C4154.01,1896.46 4165.43,1907.37 4176,1919.12C4186.57,1930.88 4196.4,1943.53 4207.71,1950.96C4209.27,1955.78 4207.23,1957.02 4205.23,1958.26C4203.23,1959.51 4201.18,1960.75 4202.75,1965.57C4207.05,1965.7 4206.69,1963.78 4206.92,1962.18C4207.16,1960.58 4207.98,1959.22 4214.88,1960.61C4206.28,1973.85 4221.4,1973.81 4224.67,1980.18C4227.02,1984.77 4221.75,1987.28 4224.67,1989.84C4229.33,1993.92 4236.01,1990.29 4239.28,1994.8C4247.79,2006.49 4242.88,2022.43 4258.59,2026.37C4258.11,2029.22 4255.9,2033.39 4254.28,2037.2C4252.66,2041 4251.67,2044.41 4253.76,2045.81C4255.36,2044.29 4258.06,2046.43 4261.33,2049.07C4264.6,2051.71 4268.48,2054.88 4272.29,2055.46C4269.79,2055.25 4267.78,2055.46 4266.29,2056.25C4264.79,2057.04 4263.82,2058.41 4263.55,2060.42C4269.76,2060.68 4272.56,2064.37 4275.16,2068.25C4277.76,2072.13 4280.1,2076.27 4285.34,2077.51C4282.16,2077.17 4279.63,2077.32 4277.9,2078.43C4276.17,2079.54 4275.32,2081.61 4275.68,2084.82C4277.98,2085.09 4279.33,2084.36 4280.64,2083.65C4281.95,2082.93 4283.16,2082.19 4285.34,2082.34C4282.92,2085.43 4281.15,2089.16 4281.16,2092.39C4281.18,2095.61 4283.01,2098.37 4287.82,2099.43C4286,2099.64 4283.69,2099.42 4281.81,2099.56C4279.94,2099.71 4278.41,2100.13 4278.03,2101.78C4279.95,2104.84 4284.67,2109.16 4288.34,2114.18C4292,2119.2 4294.65,2124.95 4292.64,2131.01C4295.95,2131.12 4297.12,2130.11 4298.12,2129.57C4299.12,2129.04 4300.02,2128.98 4302.43,2131.01C4302.72,2142.26 4309.73,2147.62 4316.52,2153.84C4323.31,2160.06 4329.78,2167.19 4329.04,2182.15C4331.92,2185.7 4334.16,2188.95 4336.09,2191.8C4338.02,2194.66 4339.63,2197.03 4341.18,2199.11C4341.32,2200.36 4338.78,2201.68 4337.13,2202.89C4335.48,2204.11 4334.8,2205.23 4338.83,2206.42C4340.91,2205.28 4342.09,2202.89 4343.4,2201.33C4344.7,2199.77 4346.08,2199.07 4348.48,2201.59C4343.89,2204.88 4343.73,2206.37 4345.09,2207.2C4346.46,2208.03 4349.4,2208.2 4350.96,2208.9C4350.65,2211.74 4348,2212.04 4345.22,2211.51C4342.45,2210.97 4339.57,2209.6 4338.83,2208.9C4339.61,2214.61 4343.74,2216.94 4348.36,2218.81C4352.96,2220.68 4357.98,2222.14 4360.62,2225.99C4360.61,2229.4 4359.05,2227.87 4357.61,2226.9C4356.18,2225.93 4354.91,2225.49 4355.79,2230.82C4360.51,2234.94 4362.38,2232.57 4364.27,2230.03C4366.16,2227.5 4368.01,2224.75 4372.75,2228.34C4381.56,2212.42 4392.71,2198.91 4400.93,2182.41C4409.16,2165.91 4414.49,2146.48 4411.63,2118.87C4409.41,2106.81 4400.52,2095.74 4392.97,2085.34C4385.43,2074.95 4379.28,2065.22 4382.54,2055.59C4380.22,2055.08 4377.56,2054.79 4375.62,2053.9C4373.68,2053 4372.38,2051.5 4372.75,2048.29C4378.83,2050.31 4386.21,2051.12 4392.58,2052.86C4398.95,2054.59 4404.36,2057.24 4406.81,2062.9C4402.59,2060.99 4398.87,2059.04 4395.06,2057.94C4391.25,2056.84 4387.36,2056.64 4382.54,2058.07C4395.53,2064.7 4410.11,2068.25 4425.07,2070.86C4440.03,2073.47 4455.33,2075.12 4469.95,2077.51C4452.71,2048.14 4415.62,2038.68 4379.8,2027.93C4343.98,2017.18 4309.39,2005.11 4297.47,1970.4C4313.19,1969.97 4335.88,1972.07 4358.14,1977.18C4380.4,1982.3 4402.22,1990.5 4416.46,2002.1C4414.91,2001.86 4412.03,1999.97 4409.41,1998.84C4406.79,1997.71 4404.45,1997.3 4404.33,1999.62C4407.37,2005.67 4409.1,2009.95 4411.89,2013.32C4414.68,2016.7 4418.61,2019.18 4426.24,2021.54C4428.02,2017.21 4426.01,2013.58 4424.29,2010.71C4422.56,2007.84 4421.08,2005.68 4423.77,2004.45C4440.73,2007.87 4452.45,2019.64 4463.43,2031.07C4474.41,2042.49 4484.65,2053.61 4499.05,2055.59C4501.4,2051.67 4501.71,2047.29 4501.26,2043.33C4500.82,2039.38 4499.61,2035.83 4499.05,2033.67C4498.72,2031.17 4496.04,2031.03 4493.57,2030.67C4491.09,2030.32 4488.87,2029.73 4489.39,2026.37C4469.28,1996.63 4438.31,1977.75 4400.54,1965.7C4362.78,1953.65 4318.27,1948.51 4270.85,1946.13C4266.3,1940.15 4260.6,1935.22 4255.59,1929.69C4250.58,1924.17 4246.23,1918.02 4244.11,1909.6C4269.11,1909.63 4296.86,1908.93 4322.52,1910.77C4347.83,1912.59 4371.03,1916.94 4387.36,1926.56C4389.2,1930.81 4390.88,1935.23 4393.1,1939.09C4395.32,1942.94 4398.13,1946.25 4401.98,1948.48C4402.4,1941.96 4404.22,1941.3 4406.54,1942.61C4408.86,1943.92 4411.68,1947.21 4414.11,1948.48C4416.21,1947.74 4416.14,1944.87 4416.2,1942.09C4416.26,1939.31 4416.42,1936.66 4418.94,1936.35C4435.75,1944.82 4451.09,1957.05 4465.77,1968.96C4480.46,1980.87 4494.53,1992.47 4508.83,1999.62C4510.66,1993.25 4510.09,1986.76 4508.44,1980.57C4506.79,1974.39 4504.04,1968.5 4501.53,1963.09C4498.41,1964.68 4499.78,1967.88 4501.26,1970.92C4502.75,1973.96 4504.34,1976.84 4501.53,1977.7C4499.64,1976.35 4498.38,1974.31 4496.7,1972.75C4495.02,1971.18 4492.93,1970.09 4489.39,1970.4C4469.39,1933.72 4433.12,1911.33 4388.15,1898.64C4343.17,1885.95 4289.42,1882.96 4234.32,1885.2C4235.25,1878.6 4234.3,1873.94 4233.28,1869.28C4232.26,1864.62 4231.27,1860.02 4231.97,1853.63C4260.01,1853.08 4292.8,1850.92 4322.52,1852.71C4352.24,1854.51 4378.86,1860.27 4394.67,1875.55C4394.79,1873.63 4394.65,1871.42 4395.19,1869.94C4395.73,1868.45 4396.91,1867.67 4399.5,1868.24C4415.66,1873.13 4428.14,1881.68 4440.34,1890.55C4452.53,1899.42 4464.41,1908.56 4479.61,1914.43C4462.91,1872.22 4423.54,1851.06 4375.23,1839.8C4326.92,1828.54 4269.73,1827.2 4217.36,1824.4C4215.97,1840.82 4219.02,1851.36 4221.8,1861.98C4224.57,1872.6 4227.07,1883.27 4224.67,1899.81C4209.77,1883.5 4191.73,1870.4 4175.48,1855.45C4159.23,1840.51 4144.79,1823.68 4137.25,1800C4134.99,1799.84 4132.91,1799.47 4131.25,1798.7C4129.59,1797.93 4128.27,1796.81 4127.47,1795.18C4149.03,1791.38 4168.62,1792.27 4186.7,1796.09C4204.78,1799.91 4221.37,1806.64 4236.8,1814.62C4236.62,1811.6 4236.47,1808.64 4237.06,1806.4C4237.66,1804.15 4238.98,1802.66 4241.63,1802.48C4266.21,1800.13 4295.22,1798.15 4320.56,1800.79C4345.9,1803.42 4367.64,1810.73 4377.71,1826.88C4379.25,1823.17 4377.09,1820.07 4375.36,1817.62C4373.64,1815.17 4372.3,1813.37 4375.23,1812.27C4394.55,1814.41 4408.47,1821.88 4421.55,1830.27C4434.62,1838.67 4446.83,1847.98 4462.64,1853.63C4450.17,1820.88 4417.47,1802.21 4378.75,1791.65C4340.03,1781.1 4295.26,1778.69 4258.59,1778.22C4269.43,1772.72 4287.15,1766.83 4304.78,1764.65C4322.4,1762.47 4340.01,1763.92 4350.96,1773.26C4351.44,1771.16 4350.49,1769.6 4349.92,1768.43C4349.35,1767.26 4349.16,1766.48 4350.96,1765.95C4370.93,1764.56 4386.83,1770.48 4401.06,1777.69C4415.29,1784.91 4427.88,1793.49 4440.86,1797.66C4422.8,1770.64 4375.88,1752.53 4329.04,1749.64C4282.21,1746.75 4235.4,1758.99 4217.36,1792.7C4205.18,1787.06 4190.98,1783.54 4176,1780.69C4161.03,1777.86 4145.29,1775.73 4129.95,1773.26C4128.37,1764.18 4127.05,1758.41 4126.16,1751.99C4125.28,1745.57 4124.85,1738.53 4125.12,1727.07C4119.24,1725.72 4116.81,1723.81 4114.94,1721.07C4113.07,1718.33 4111.67,1714.7 4108.03,1709.98C4101.26,1709 4093.99,1706.47 4088.07,1703.33C4082.15,1700.19 4077.58,1696.51 4076.45,1693.02C4071.99,1699.1 4070.1,1697.97 4068.76,1695.89C4067.41,1693.81 4066.62,1690.79 4064.32,1693.02C4066.79,1692.65 4066.74,1694.4 4065.76,1696.28C4064.77,1698.17 4062.94,1700.19 4061.97,1700.33C4061.29,1697.63 4060.7,1695.98 4059.36,1694.98C4058.02,1693.97 4055.86,1693.6 4052.19,1693.02C4049.03,1696.22 4050.08,1696.67 4051.66,1697.33C4053.25,1697.98 4055.41,1698.76 4054.67,1702.67C4048.59,1702.71 4045.57,1705.36 4043.18,1707.89C4040.8,1710.43 4039.06,1712.91 4035.23,1712.46C4038.72,1717.03 4038.03,1718.42 4037.44,1719.5C4036.86,1720.59 4036.34,1721.34 4040.05,1724.59C4035.44,1725.65 4032.63,1723.61 4031.44,1720.81C4030.26,1718.01 4030.69,1714.5 4032.75,1712.46C4028.85,1711.39 4027.61,1712.97 4026.74,1714.94C4025.88,1716.91 4025.43,1719.27 4023.09,1719.77C3975.93,1694.75 3906.44,1669.84 3831.82,1667.97ZM3763.2,1688.06C3736.5,1699.03 3711.57,1711.88 3687.26,1725.25C3662.96,1738.61 3639.36,1752.53 3615.11,1765.95C3632.92,1750.94 3653.57,1733.64 3678,1718.98C3702.43,1704.33 3730.59,1692.3 3763.2,1688.06ZM3903.06,1692.89C3909.46,1693.87 3916.6,1695.74 3923.54,1697.85C3865.59,1714.4 3810.41,1733.82 3756.67,1754.6C3702.93,1775.38 3650.55,1797.58 3598.02,1819.58C3616.93,1805.23 3641.63,1795.12 3666,1783.04C3729.4,1751.62 3815.87,1714.34 3887.01,1693.02C3890.92,1691.85 3896.66,1691.91 3903.06,1692.89ZM3969.08,1714.42C3982.56,1715.52 3994.46,1721.16 4003.65,1729.42C3884.15,1744.92 3778.03,1777.79 3680.61,1812.27C3652.93,1822.06 3629.34,1844.08 3600.5,1846.32C3605.51,1832.34 3624.16,1827.48 3636.9,1821.92C3726.33,1782.94 3850.8,1731.19 3955.12,1714.94C3959.91,1714.19 3964.58,1714.05 3969.08,1714.42ZM3656.34,1714.94C3649.62,1721.18 3642.04,1726.55 3634.16,1731.64C3626.28,1736.72 3618.07,1741.46 3610.16,1746.51C3610.88,1739.12 3617.75,1732.6 3626.72,1727.2C3635.7,1721.81 3646.84,1717.59 3656.34,1714.94ZM3484.9,1775.48C3483.39,1775.25 3481.78,1775.53 3480.21,1776.26C3477.07,1777.72 3474.37,1780.66 3474.21,1783.04C3476.71,1782.31 3480.95,1783.24 3484.25,1783.3C3487.56,1783.37 3489.97,1782.61 3488.82,1778.22C3487.89,1776.55 3486.42,1775.7 3484.9,1775.48ZM4496.7,1887.68C4501.57,1892.13 4504.08,1898.9 4507.79,1904.51C4511.5,1910.12 4516.36,1914.55 4525.79,1914.43C4524.06,1907.63 4519.53,1900.5 4514.05,1895.25C4508.57,1890 4502.2,1886.66 4496.7,1887.68ZM3891.58,1926.3C3831.38,1927.25 3773.36,1932.4 3726.8,1938.82C3694.78,1943.24 3658.61,1938.87 3636.9,1960.61C3710.2,1954.34 3785.62,1946.97 3860.53,1944.83C3935.44,1942.68 4009.91,1945.75 4081.41,1960.61C4087.35,1953.4 4086.15,1947.88 4082.85,1942.61C4079.55,1937.33 4074.07,1932.32 4071.63,1926.56C4070.96,1928.33 4071.67,1931.48 4071.89,1934.13C4072.11,1936.78 4071.91,1939.03 4069.28,1938.82C4014.2,1928.61 3951.78,1925.35 3891.58,1926.3ZM4389.58,1927.87C4390.47,1928.44 4391.34,1928.96 4392.19,1929.56C4393.04,1930.16 4393.88,1930.87 4394.67,1931.52C4393.43,1931.31 4392.57,1930.64 4391.8,1929.95C4391.04,1929.27 4390.36,1928.54 4389.58,1927.87ZM3805.6,1971.7C3757.48,1971.52 3709.63,1974.59 3663.65,1982.53C3668.23,1987.04 3678.88,1987.71 3688.57,1988.4C3698.26,1989.1 3706.97,1989.92 3707.36,1994.8C3711.77,1992.07 3714.77,1992.3 3718.18,1993.1C3721.6,1993.9 3725.42,1995.28 3731.62,1994.8C3731.99,1997.19 3731.16,1998.31 3730.06,1999.23C3728.95,2000.15 3727.59,2000.87 3726.8,2002.1C3737.99,2007.16 3745.86,2010.19 3755.5,2012.28C3765.14,2014.37 3776.54,2015.39 3794.77,2016.58C3794.78,2017.8 3794.28,2018.53 3793.73,2019.19C3793.18,2019.86 3792.52,2020.56 3792.29,2021.54C3795.94,2017.71 3799.67,2018.56 3804.56,2019.98C3809.44,2021.39 3815.46,2023.38 3823.87,2021.54C3824.72,2017.04 3822.62,2015.48 3819.82,2014.63C3817.03,2013.78 3813.55,2013.59 3811.73,2011.76C3811.54,2013.19 3811.68,2014.9 3811.47,2016.32C3811.27,2017.74 3810.81,2018.87 3809.38,2019.06C3798.22,2010.55 3783.35,2006.45 3769.33,2003.8C3755.3,2001.15 3742.13,1999.94 3734.1,1997.14C3735.29,1995.5 3737.25,1994.78 3739.19,1993.88C3741.13,1992.99 3742.99,1991.91 3743.76,1989.84C3746.56,1989.47 3747.25,1991.22 3747.8,1993.1C3748.35,1994.98 3748.77,1997.01 3751.06,1997.14C3751.34,1993.95 3750.83,1990.66 3753.54,1989.84C3766.89,1985.77 3792.77,1992.03 3816.69,1992.32C3869.11,1992.94 3940.3,1986.95 3993.87,2009.41C4001.09,2006.1 4012.09,2006.45 4021.53,2005.36C4030.97,2004.28 4038.88,2001.69 4040.05,1992.32C3981.29,1983.58 3917.84,1975.77 3853.74,1972.88C3837.72,1972.15 3821.64,1971.76 3805.6,1971.7ZM3938.03,2014.24C3929.13,2015.79 3922.22,2016.17 3914.28,2016.32C3906.34,2016.47 3897.45,2016.3 3884.66,2016.58C3890.14,2022.42 3900.52,2024.96 3911.02,2024.41C3921.52,2023.87 3932.08,2020.33 3938.03,2014.24ZM4500.09,2014.24C4498.59,2014.46 4497.35,2015.19 4496.7,2016.58C4498.58,2017.94 4499.85,2019.98 4501.53,2021.54C4503.2,2023.1 4505.29,2024.19 4508.83,2023.89C4510.39,2019.78 4508.02,2016.64 4504.92,2015.15C4503.37,2014.4 4501.6,2014.02 4500.09,2014.24ZM3852.57,2015.93C3841.45,2015.53 3830.86,2015.74 3826.34,2019.06C3827.29,2019.33 3828.01,2019.83 3828.43,2020.63C3828.85,2021.42 3829.02,2022.48 3828.82,2023.89C3839.15,2019.24 3848.82,2021.07 3857.79,2022.19C3866.75,2023.32 3874.95,2023.72 3882.18,2016.58C3875.31,2017.29 3863.68,2016.33 3852.57,2015.93ZM4348.48,2252.73C4347.99,2255.66 4349.07,2256.89 4350.05,2258.35C4351.03,2259.79 4351.97,2261.43 4350.96,2264.87C4348.58,2264.51 4347.31,2265.32 4346.4,2266.43C4345.48,2267.54 4344.89,2268.91 4343.65,2269.7C4343.39,2268.75 4343.38,2267.54 4343.14,2266.56C4342.89,2265.59 4342.36,2264.9 4341.18,2264.87C4335.51,2269.89 4327.82,2275.76 4322,2282.61C4316.17,2289.46 4312.32,2297.28 4314.56,2306.23L4307.26,2306.23C4310.91,2312.28 4317.18,2315.22 4320.95,2319.14C4324.73,2323.06 4326,2328.03 4319.39,2337.93C4320.82,2338.52 4322.19,2339.1 4323.43,2339.89C4324.67,2340.67 4325.81,2341.62 4326.69,2342.76C4322.77,2341.26 4322.2,2343.27 4321.73,2345.24C4321.27,2347.21 4320.84,2349.09 4316.91,2347.59C4319.97,2351.82 4322.21,2357.04 4324.35,2362.2C4326.48,2367.36 4328.56,2372.48 4331.52,2376.81C4328.7,2379.26 4328.08,2383.88 4326.95,2388.03C4325.84,2392.18 4324.22,2395.82 4319.39,2396.25C4322.78,2394.45 4321.24,2391.85 4318.74,2390.38C4316.24,2388.91 4312.76,2388.62 4312.08,2391.42C4313.45,2391.68 4314.35,2392.37 4315.08,2393.25C4315.82,2394.13 4316.37,2395.17 4316.91,2396.25C4315.43,2396.39 4314.08,2396.63 4313.13,2397.3C4312.17,2397.96 4311.64,2399.14 4312.08,2401.21C4316.52,2402 4319.76,2401.57 4322.39,2400.56C4325.02,2399.55 4327.01,2397.86 4329.04,2396.25C4327.09,2407.51 4333.1,2423.86 4338.7,2438.65C4344.29,2453.45 4349.56,2466.78 4346.13,2471.79C4349.55,2473.68 4353.74,2476.58 4355.92,2479.1C4358.1,2481.62 4358.17,2483.73 4353.31,2483.93C4355.09,2486.61 4357.12,2489.1 4359.18,2491.49C4361.24,2493.89 4363.44,2496.22 4365.57,2498.54C4363.76,2498.75 4361.45,2498.53 4359.57,2498.67C4357.69,2498.81 4356.17,2499.24 4355.79,2500.89C4359.82,2501.32 4362.4,2503.13 4364.53,2505.45C4366.66,2507.78 4368.39,2510.71 4370.4,2513.15C4366.25,2508.47 4365.93,2511.94 4365.57,2515.5C4365.22,2519.06 4364.77,2522.66 4360.62,2517.98C4360.94,2521.02 4363.3,2523.07 4364.66,2525.16C4366.02,2527.24 4366.44,2529.36 4363.1,2532.59C4368.53,2531.2 4370.14,2533.63 4370.79,2537.03C4371.45,2540.42 4371.11,2544.8 4372.75,2547.2C4367.27,2543.6 4367.99,2545.44 4369.1,2548.51C4370.2,2551.58 4371.71,2555.79 4367.92,2556.86C4367.22,2555.79 4363.9,2553.95 4361.53,2552.95C4359.16,2551.94 4357.72,2551.87 4360.62,2554.51C4365.06,2556.42 4363.65,2557.23 4361.53,2558.43C4359.41,2559.62 4356.66,2561.12 4358.27,2564.16C4364.8,2567.42 4368.82,2572.69 4369.49,2578.13C4370.16,2583.56 4367.41,2589.18 4360.62,2593.39C4359.66,2597.6 4360.35,2600.2 4361.53,2602.26C4362.72,2604.32 4364.5,2605.84 4365.57,2608C4359.01,2613.57 4357.39,2623.24 4355.79,2631.88C4354.2,2640.52 4352.61,2648.12 4346.13,2649.36C4345.07,2653.27 4346.96,2654.19 4349.14,2654.84C4351.32,2655.5 4353.67,2655.95 4353.31,2659.15C4344.8,2657.36 4343.4,2658.93 4343,2661.37C4342.61,2663.8 4343.3,2667.04 4338.83,2668.8C4338.64,2667.37 4338.77,2665.65 4338.57,2664.24C4338.36,2662.82 4337.78,2661.69 4336.35,2661.5C4336.33,2663.51 4334.71,2663.96 4332.96,2664.24C4331.21,2664.51 4329.32,2664.7 4329.04,2666.45C4333.67,2666.69 4335.93,2669.18 4338.05,2671.93C4340.15,2674.68 4342.2,2677.66 4346.13,2678.59C4325.35,2679.14 4316.84,2667.35 4309.6,2654.32C4302.37,2641.29 4296.36,2627.01 4280.51,2622.62C4279.39,2626.77 4276.04,2628.67 4271.9,2629.79C4267.76,2630.91 4262.76,2631.3 4258.59,2632.4C4259.17,2636.22 4258.46,2638.68 4257.02,2640.49C4255.59,2642.3 4253.54,2643.42 4251.41,2644.53C4247.16,2641.17 4245.32,2640.02 4244.24,2640.62C4243.16,2641.22 4242.78,2643.48 4241.63,2646.88C4241.85,2644.23 4241.41,2642.36 4240.19,2641.14C4238.98,2639.93 4236.97,2639.49 4234.32,2639.71C4234.69,2642.1 4233.87,2643.22 4232.76,2644.14C4231.65,2645.06 4230.28,2645.65 4229.5,2646.88C4231.91,2650.86 4233.28,2648.82 4234.59,2646.75C4235.89,2644.68 4237.2,2642.58 4239.28,2646.88C4237.46,2649.71 4235.87,2650.74 4234.06,2650.8C4232.26,2650.86 4230.12,2650 4227.02,2649.36C4225.35,2657 4221.14,2658.98 4216.71,2658.62C4212.27,2658.27 4207.67,2655.55 4205.23,2654.19C4206.4,2659.42 4204.05,2661.22 4201.05,2662.28C4198.06,2663.33 4194.43,2663.74 4193.09,2666.45C4193.19,2668.57 4193.1,2670.43 4192.7,2672.06C4192.31,2673.7 4191.56,2675.03 4190.61,2676.11C4194.55,2676.82 4195.73,2678.13 4196.23,2679.5C4196.72,2680.88 4196.55,2682.32 4197.92,2683.41C4198.27,2681.6 4200.56,2682.97 4203.14,2684.98C4205.73,2686.99 4208.6,2689.63 4210.05,2690.72C4217.73,2685.33 4224.28,2686.51 4230.15,2687.85C4236.02,2689.19 4241.18,2690.72 4246.45,2685.89C4246.63,2689.37 4249.24,2690.43 4252.59,2690.72C4255.94,2691.02 4260.11,2690.51 4263.55,2690.72C4263.67,2692.09 4262.72,2693.11 4262.24,2693.85C4261.77,2694.59 4261.78,2695.14 4263.55,2695.68C4264.74,2691.95 4266.26,2692.53 4267.99,2694.11C4269.71,2695.7 4271.59,2698.21 4273.2,2698.03C4274.21,2691.76 4279.84,2694.4 4284.82,2696.98C4289.79,2699.57 4294.13,2702.17 4292.64,2695.68C4301.04,2701.83 4306.44,2707.72 4308.56,2714.6C4310.68,2721.48 4309.52,2729.25 4304.78,2739.39C4314.5,2744.35 4311.98,2750.31 4308.56,2755.96C4305.14,2761.61 4300.86,2767.02 4307.26,2771.09C4303.27,2768.38 4300.59,2769.65 4298.12,2770.96C4295.65,2772.27 4293.31,2773.62 4290.16,2771.09C4290.83,2772.86 4290.12,2776.01 4289.9,2778.66C4289.69,2781.31 4290.01,2783.43 4292.64,2783.22C4292.66,2782 4293.73,2781.21 4294.86,2781.14C4296,2781.06 4297.17,2781.69 4297.47,2783.22C4293.63,2783.03 4291.69,2784.63 4289.51,2786.1C4287.33,2787.56 4284.95,2788.85 4280.51,2788.05C4281.72,2791.3 4283.33,2794.21 4285.07,2796.92C4286.82,2799.64 4288.62,2802.22 4290.16,2805.14C4288.35,2808.52 4285.95,2807.52 4283.64,2806.45C4281.33,2805.38 4279.13,2804.29 4278.03,2807.62C4280.74,2808.5 4281.12,2811.89 4279.98,2814.93C4278.85,2817.96 4276.22,2820.61 4273.2,2819.76C4272.17,2823.34 4273.78,2827.24 4276.07,2829.54C4278.37,2831.84 4281.42,2832.45 4282.99,2829.41C4278.94,2828.87 4278.33,2826.36 4279.33,2823.67C4280.34,2820.98 4282.89,2818.12 4285.34,2817.28C4288.49,2821.04 4293.97,2825.77 4299.56,2829.28C4305.14,2832.79 4310.91,2835.15 4314.56,2834.37C4310.93,2833.57 4311.41,2832.25 4312.6,2830.58C4313.8,2828.92 4315.72,2826.85 4314.56,2824.58C4311.41,2822.46 4308.56,2820.07 4306.08,2817.28C4303.61,2814.48 4301.48,2811.36 4299.95,2807.62C4303.66,2810.27 4306.05,2810.57 4308.17,2811.01C4310.28,2811.46 4312.16,2812.06 4314.56,2814.93C4316.14,2811.91 4314.28,2809.26 4313,2807.23C4311.71,2805.2 4311,2803.7 4314.56,2802.66C4314.73,2804.93 4315.1,2807 4315.86,2808.67C4316.63,2810.33 4317.76,2811.65 4319.39,2812.45C4319.73,2808.18 4321.95,2809.75 4324.22,2811.28C4326.48,2812.8 4328.71,2814.24 4329.04,2809.97C4322.71,2808.3 4320.62,2802.87 4319.65,2797.18C4318.68,2791.5 4318.83,2785.58 4316.91,2783.22C4318.64,2783.52 4319.7,2784.54 4320.69,2785.57C4321.69,2786.61 4322.62,2787.62 4324.22,2788.05C4328.77,2783.16 4328.1,2778.06 4327.22,2773.7C4326.33,2769.34 4325.2,2765.77 4329.04,2763.78C4329.56,2769.63 4329.85,2768.87 4330.74,2767.05C4331.63,2765.22 4333.15,2762.34 4336.35,2763.78C4337.99,2764.98 4339.29,2766.62 4340.39,2768.35C4341.5,2770.08 4342.44,2771.82 4343.65,2773.44C4347.55,2773.92 4351.03,2771.42 4352.4,2768.48C4353.77,2765.55 4352.99,2762.21 4348.48,2761.3C4346.82,2767.83 4343.98,2763.98 4340.52,2760.39C4337.07,2756.8 4332.99,2753.47 4329.04,2761.3C4330.72,2756.38 4329.43,2754.51 4327.74,2752.95C4326.05,2751.4 4324.01,2750.14 4324.22,2746.69C4325.02,2745.06 4326.34,2743.94 4328,2743.17C4329.66,2742.4 4331.74,2742.03 4334,2741.87C4334.05,2743.54 4333.68,2744.88 4333.22,2746.04C4332.76,2747.2 4332.16,2748.19 4331.52,2749.17L4341.18,2749.17C4341.66,2747.08 4340.84,2745.51 4340.26,2744.34C4339.69,2743.18 4339.38,2742.39 4341.18,2741.87C4343.27,2744.64 4344.9,2747.89 4347.31,2750.35C4349.72,2752.8 4353,2754.41 4358.27,2754C4384.72,2701.61 4383.87,2641.98 4392.19,2581.26C4392.22,2581.05 4397.12,2581.46 4397.15,2581.26C4401.67,2543.19 4404.48,2495.9 4397.15,2462.01C4397.17,2462.11 4398.29,2462.05 4399.5,2462.01C4400.71,2461.96 4401.98,2461.92 4401.98,2462.01C4400.73,2426.1 4395.73,2391.07 4387.49,2357.89C4379.26,2324.72 4367.69,2293.38 4353.31,2264.87C4354.86,2264.93 4355.76,2265.76 4356.7,2266.43C4357.65,2267.11 4358.65,2267.69 4360.62,2267.35C4359.21,2264.29 4357.88,2261.1 4356.05,2258.47C4354.22,2255.85 4351.9,2253.78 4348.48,2252.73ZM4310.65,2410.47C4306.84,2410.11 4303.19,2410.74 4302.43,2413.34C4304.76,2414.42 4308.24,2416.93 4311.56,2417.91C4314.88,2418.89 4318.01,2418.33 4319.39,2413.34C4318.37,2412.2 4314.45,2410.84 4310.65,2410.47ZM4222.19,2437.61C4221.48,2442.37 4222.06,2445.95 4223.1,2448.96C4224.15,2451.97 4225.63,2454.51 4227.02,2457.18C4225.47,2457.25 4224.69,2457.94 4223.76,2458.62C4222.81,2459.29 4221.8,2459.87 4219.84,2459.53C4218.94,2463.27 4220.52,2464.49 4222.19,2465.66C4223.86,2466.83 4225.57,2468.05 4224.67,2471.79C4221.48,2472.65 4220.2,2475.41 4219.19,2478.45C4218.17,2481.49 4217.34,2484.68 4214.88,2486.28C4220.75,2488.16 4219.42,2488.7 4217.23,2490.58C4215.04,2492.46 4211.99,2495.74 4214.88,2503.37C4219.02,2505.68 4222.82,2507.84 4227.02,2510.15C4231.21,2512.46 4235.83,2514.93 4241.63,2517.98C4245.61,2530.17 4254.56,2537.11 4265.64,2541.2C4276.7,2545.3 4289.97,2546.58 4302.43,2547.2C4301.69,2547.27 4300.95,2547.39 4300.47,2547.73C4299.99,2548.06 4299.72,2548.52 4299.95,2549.55C4304.98,2549.88 4305.76,2547.6 4305.82,2545.12C4305.88,2542.64 4305.23,2540.05 4307.26,2539.9C4318.77,2540.78 4323.23,2543.37 4325.65,2548.12C4328.08,2552.87 4328.45,2559.79 4331.52,2569.12C4333.29,2568.46 4336.44,2569.17 4339.09,2569.38C4341.74,2569.6 4343.86,2569.28 4343.65,2566.64C4339.93,2565.45 4340.64,2563.81 4342.22,2562.08C4343.8,2560.35 4346.32,2558.48 4346.13,2556.86C4341.27,2543.07 4338.16,2526.49 4333.87,2510.67C4329.58,2494.86 4324.12,2479.87 4314.56,2469.31C4310.27,2471.51 4308.22,2475.93 4305.56,2479.75C4302.89,2483.57 4299.55,2486.71 4292.64,2486.28C4291.15,2490.21 4293.16,2490.77 4295.12,2491.23C4297.09,2491.7 4298.97,2492.12 4297.47,2496.06C4291.47,2495.72 4287.94,2497.82 4284.94,2500.5C4281.95,2503.18 4279.57,2506.41 4275.68,2508.19C4260.04,2505.05 4252.27,2496.26 4246.85,2485.62C4241.42,2474.98 4238.36,2462.48 4231.97,2452.22C4236.36,2453.38 4237.13,2450.97 4237.06,2447.66C4236.99,2444.34 4236.07,2440.12 4236.8,2437.61L4222.19,2437.61ZM4307.26,2552.03C4302.4,2551.63 4298.71,2552.47 4296.3,2554.51C4293.88,2556.56 4292.72,2559.78 4292.64,2564.16C4297.73,2563.98 4299.14,2564.4 4298.91,2565.21C4298.67,2566.02 4296.83,2567.32 4295.12,2569.12C4296.55,2569.31 4298.27,2569.18 4299.69,2569.38C4301.1,2569.59 4302.23,2570.05 4302.43,2571.47C4301.69,2571.54 4300.95,2571.66 4300.47,2571.99C4299.99,2572.33 4299.72,2572.91 4299.95,2573.95C4302.72,2572.28 4304.94,2573.79 4306.61,2574.99C4308.27,2576.2 4309.31,2577.09 4309.6,2573.95C4306.65,2573.19 4306.33,2570.12 4307.52,2567.56C4308.7,2564.99 4311.49,2562.88 4314.56,2564.16C4315.84,2559.64 4313.73,2558.45 4311.17,2557.77C4308.61,2557.09 4305.54,2556.99 4304.78,2554.51C4305.52,2554.44 4306.25,2554.32 4306.73,2553.99C4307.21,2553.66 4307.48,2553.07 4307.26,2552.03ZM4176.14,2663.97C4177.74,2668.53 4175.15,2672.07 4172.87,2674.8C4170.6,2677.54 4168.55,2679.52 4171.18,2681.07C4172.34,2678.59 4174.7,2677.28 4177.7,2676.63C4180.69,2675.98 4184.43,2675.91 4188.27,2676.11C4188.06,2674.29 4188.28,2672.12 4188.13,2670.24C4187.99,2668.35 4187.44,2666.83 4185.79,2666.45C4183.88,2670.9 4182.93,2669.49 4181.74,2667.37C4180.55,2665.24 4179.18,2662.37 4176.14,2663.97ZM4312.08,2734.56L4321.73,2734.56C4321.54,2735.97 4321.71,2737.02 4322.13,2737.82C4322.55,2738.62 4323.27,2739.12 4324.22,2739.39C4323.33,2742.11 4319.94,2742.49 4316.91,2741.34C4313.88,2740.2 4311.23,2737.58 4312.08,2734.56Z" style="fill-rule:nonzero;"/></g></svg>