<?xml version="1.0" encoding="UTF-8" standalone="no"?><!DOCTYPE svg PUBLIC "-//W3C//DTD SVG 1.1//EN" "http://www.w3.org/Graphics/SVG/1.1/DTD/svg11.dtd"><svg width="100%" height="100%" viewBox="0 0 5978 726" version="1.1" xmlns="http://www.w3.org/2000/svg" xmlns:xlink="http://www.w3.org/1999/xlink" xml:space="preserve" xmlns:serif="http://www.serif.com/" style="fill-rule:evenodd;clip-rule:evenodd;stroke-linejoin:round;stroke-miterlimit:2;"><g id="Artboard1" transform="matrix(0.74725,0,0,0.161333,0,0)"><rect x="0" y="0" width="8000" height="4500" style="fill:none;"/><g transform="matrix(5.576,0,0,25.8264,-1352.96,-11696.3)"><path d="M960,456.188L931.094,484.813L953.531,484.813L953.531,477.5L950.094,477.5L960,467.688L969.906,477.5L966.469,477.5L966.469,484.813L988.906,484.813L960.062,456.25L960,456.188ZM907.906,487.469L907.906,517.031L916,508.844L918.844,511.75L917.281,514.219L915.844,516.781L914.594,519.406L913.469,522.125L912.5,524.875L911.719,527.688L911.094,530.531L910.625,533.438L910.594,533.531L918.062,533.531L918.094,533.469L918.75,530.125L919.625,526.875L920.781,523.719L922.156,520.688L923.781,517.75L925.625,514.938L927.719,512.281L930,509.781L932.5,507.469L935.125,505.344L937.906,503.5L940.812,501.844L943.844,500.469L946.969,499.313L950.188,498.406L953.5,497.75L953.562,497.75L953.562,490.219L953.469,490.219L950.594,490.688L947.75,491.313L944.969,492.125L942.219,493.094L939.531,494.188L936.906,495.469L934.375,496.906L931.937,498.5L929.125,495.625L937.219,487.469L907.906,487.469ZM982.812,487.469L990.906,495.625L988.062,498.5L985.625,496.938L983.094,495.5L980.469,494.219L977.781,493.094L975.031,492.125L972.25,491.344L969.406,490.688L966.531,490.219L966.437,490.219L966.437,497.75L966.5,497.781L969.812,498.438L973.031,499.313L976.156,500.469L979.188,501.875L982.062,503.5L984.844,505.375L987.5,507.469L989.969,509.781L992.281,512.313L994.375,514.938L996.219,517.75L997.844,520.688L999.219,523.719L1000.38,526.875L1001.25,530.125L1001.91,533.469L1001.91,533.531L1009.38,533.531L1009.38,533.438L1008.91,530.563L1008.28,527.688L1007.47,524.875L1006.53,522.125L1005.41,519.406L1004.16,516.781L1002.72,514.219L1001.16,511.75L1004,508.875L1012.09,517.031L1012.09,487.469L982.812,487.469ZM960,502.844L956.344,503.031L952.75,503.563L949.25,504.438L945.875,505.656L942.656,507.188L939.562,509.063L936.656,511.25L933.937,513.75L931.469,516.5L929.312,519.438L927.469,522.531L925.906,525.813L924.719,529.219L923.844,532.75L923.312,536.375L923.125,540.063L923.312,543.75L923.844,547.375L924.719,550.875L925.906,554.313L927.469,557.563L929.312,560.688L931.469,563.625L933.937,566.375L936.656,568.844L939.562,571.031L942.656,572.906L945.875,574.438L949.25,575.688L952.75,576.563L956.344,577.094L960,577.25L963.656,577.094L967.25,576.563L970.75,575.688L974.125,574.438L977.344,572.906L980.437,571.031L983.344,568.844L986.062,566.375L988.531,563.625L990.688,560.688L992.531,557.563L994.094,554.313L995.281,550.906L996.156,547.375L996.688,543.75L996.875,540.063L996.688,536.375L996.156,532.75L995.281,529.219L994.094,525.813L992.531,522.531L990.688,519.438L988.531,516.469L986.062,513.75L983.344,511.25L980.437,509.063L977.344,507.188L974.125,505.656L970.75,504.438L967.25,503.563L963.656,503.031L960,502.844ZM904.812,511.094L876.25,539.938L876.188,540L904.688,568.781L904.812,568.906L904.812,546.469L897.5,546.469L897.5,549.906L887.688,540L897.5,530.094L897.5,533.531L904.812,533.531L904.812,511.094ZM1015.19,511.094L1015.19,533.531L1022.5,533.531L1022.5,530.094L1032.31,540L1022.5,549.906L1022.5,546.469L1015.19,546.469L1015.19,568.906L1043.75,540.063L1043.81,540L1015.31,511.219L1015.19,511.094ZM261.125,524.781C257.23,524.781 253.346,526.278 250.375,529.25C247.403,532.221 245.906,536.111 245.906,540C245.906,543.889 247.403,547.779 250.375,550.75C256.318,556.693 265.963,556.693 271.906,550.75C274.115,548.541 275.496,545.817 276.063,542.969L818.406,542.969C818.973,545.817 820.353,548.541 822.562,550.75C828.505,556.693 838.119,556.693 844.062,550.75C850.005,544.807 850.005,535.193 844.062,529.25C841.091,526.279 837.207,524.781 833.312,524.781C829.418,524.781 825.534,526.278 822.562,529.25C820.354,531.459 818.973,534.183 818.406,537.031L276.063,537.031C275.496,534.183 274.115,531.459 271.906,529.25C268.935,526.279 265.02,524.781 261.125,524.781ZM1086.72,524.781C1082.82,524.781 1078.94,526.278 1075.97,529.25C1073,532.221 1071.5,536.111 1071.5,540C1071.5,543.889 1073,547.779 1075.97,550.75C1081.91,556.693 1091.56,556.693 1097.5,550.75C1099.71,548.541 1101.09,545.817 1101.66,542.969L1644,542.969C1644.57,545.817 1645.95,548.541 1648.16,550.75C1654.1,556.693 1663.71,556.693 1669.66,550.75C1675.6,544.807 1675.6,535.193 1669.66,529.25C1666.68,526.279 1662.8,524.781 1658.91,524.781C1655.01,524.781 1651.13,526.278 1648.16,529.25C1645.95,531.459 1644.57,534.183 1644,537.031L1101.66,537.031C1101.09,534.183 1099.71,531.459 1097.5,529.25C1094.53,526.279 1090.61,524.781 1086.72,524.781ZM261.125,531.219C263.368,531.219 265.632,532.101 267.344,533.813C270.767,537.236 270.767,542.764 267.344,546.188C263.921,549.611 258.361,549.611 254.938,546.188C251.514,542.764 251.514,537.236 254.938,533.813C256.649,532.101 258.882,531.219 261.125,531.219ZM833.312,531.219C835.556,531.219 837.788,532.101 839.5,533.813C842.923,537.236 842.923,542.764 839.5,546.188C836.077,549.611 830.548,549.611 827.125,546.188C823.702,542.764 823.702,537.236 827.125,533.813C828.837,532.101 831.069,531.219 833.312,531.219ZM1086.72,531.219C1088.96,531.219 1091.23,532.101 1092.94,533.813C1096.36,537.236 1096.36,542.764 1092.94,546.188C1089.51,549.611 1083.95,549.611 1080.53,546.188C1077.11,542.764 1077.11,537.236 1080.53,533.813C1082.24,532.101 1084.47,531.219 1086.72,531.219ZM1658.91,531.219C1661.15,531.219 1663.38,532.101 1665.09,533.813C1668.52,537.236 1668.52,542.764 1665.09,546.188C1661.67,549.611 1656.14,549.611 1652.72,546.188C1649.3,542.764 1649.3,537.236 1652.72,533.813C1654.43,532.101 1656.66,531.219 1658.91,531.219ZM910.594,546.469L910.625,546.563L911.062,549.469L911.688,552.344L912.5,555.156L913.437,557.938L914.562,560.656L915.844,563.313L917.25,565.875L918.844,568.344L915.969,571.219L907.875,563.063L907.875,592.625L937.156,592.625L929.094,584.438L931.937,581.563L934.375,583.156L936.906,584.594L939.531,585.875L942.219,587L944.969,587.938L947.75,588.75L950.594,589.406L953.469,589.875L953.562,589.875L953.562,582.344L953.5,582.313L950.188,581.656L946.969,580.781L943.844,579.625L940.812,578.219L937.906,576.563L935.125,574.719L932.5,572.594L930,570.281L927.719,567.75L925.625,565.094L923.781,562.281L922.156,559.375L920.75,556.313L919.625,553.156L918.719,549.875L918.094,546.531L918.062,546.469L910.594,546.469ZM1001.94,546.469L1001.91,546.531L1001.28,549.875L1000.38,553.156L999.25,556.313L997.875,559.344L996.25,562.281L994.375,565.094L992.312,567.75L990,570.25L987.531,572.594L984.875,574.688L982.094,576.563L979.188,578.188L976.156,579.594L973.031,580.75L969.812,581.656L966.5,582.313L966.437,582.313L966.437,589.875L966.531,589.844L969.375,589.375L972.219,588.75L975.031,587.938L977.781,586.969L980.469,585.844L983.062,584.563L985.625,583.125L988.062,581.563L990.906,584.438L982.812,592.594L1012.09,592.594L1012.09,563.031L1004.03,571.219L1001.16,568.344L1002.75,565.875L1004.16,563.281L1005.44,560.656L1006.56,557.938L1007.5,555.156L1008.31,552.344L1008.94,549.469L1009.38,546.563L1009.41,546.469L1001.94,546.469ZM931.094,595.188L959.937,623.75L960,623.813L988.906,595.188L966.469,595.188L966.469,602.5L969.906,602.5L960,612.313L950.094,602.5L953.531,602.5L953.531,595.188L931.094,595.188Z" style="fill:#fff;fill-rule:nonzero;"/></g></g></svg>