<?xml version="1.0" encoding="utf-8"?>
<!-- Generator: Adobe Illustrator 16.0.0, SVG Export Plug-In . SVG Version: 6.00 Build 0)  -->
<!DOCTYPE svg PUBLIC "-//W3C//DTD SVG 1.1//EN" "http://www.w3.org/Graphics/SVG/1.1/DTD/svg11.dtd">
<svg version="1.1" id="Layer_1" xmlns="http://www.w3.org/2000/svg" xmlns:xlink="http://www.w3.org/1999/xlink" x="0px" y="0px"
	 viewBox="0 0 1008 1008" enable-background="new 0 0 1008 1008" xml:space="preserve">
<g>
	<path d="M322.922,764.544l16.727-16.879c37.589,25.891,81.239,42.702,126.26,48.623l0.565,0.074v-44.189l-0.424-0.065
		c-52.471-8.113-100.137-32.534-137.845-70.625c-37.71-38.092-61.866-86.221-69.855-139.185l-0.064-0.426h-43.8l0.072,0.563
		c5.842,45.522,22.512,89.654,48.215,127.653l-16.728,16.88l-47.466-47.896v173.362h171.806L322.922,764.544z"/>
	<path d="M685.079,243.953l-16.727,16.878c-37.586-25.89-81.236-42.701-126.26-48.622l-0.565-0.074v44.188l0.424,0.065
		c52.387,8.1,99.995,32.464,137.679,70.456c37.68,37.989,61.867,86.006,69.948,138.859l0.064,0.424h43.811l-0.073-0.564
		c-5.896-45.335-22.544-89.294-48.152-127.155l16.729-16.881l47.466,47.896V196.062H637.617L685.079,243.953z"/>
	<path d="M761.956,686.968l-16.723-16.874c25.707-37.999,42.38-82.134,48.222-127.658l0.072-0.563h-43.798l-0.063,0.426
		c-7.989,52.961-32.146,101.088-69.862,139.178c-37.71,38.084-85.379,62.504-137.853,70.618l-0.424,0.065v44.193l0.565-0.074
		c45.019-5.921,88.668-22.729,126.257-48.615l16.729,16.88l-47.461,47.892h171.806l-0.001-173.362L761.956,686.968z"/>
	<path d="M246.044,321.528l16.729,16.88c-25.608,37.859-42.256,81.819-48.152,127.156l-0.074,0.564h43.811l0.065-0.424
		c8.082-52.853,32.27-100.87,69.95-138.859c37.683-37.992,85.292-62.356,137.677-70.456l0.424-0.065v-44.188l-0.565,0.074
		c-45.023,5.921-88.673,22.731-126.261,48.621l-16.726-16.877l47.462-47.892H198.577l0.001,173.362L246.044,321.528z"/>
	<path d="M287.907,504.249c0,58.241,22.477,112.997,63.291,154.181c40.815,41.185,95.081,63.866,152.802,63.866
		c57.721,0,111.987-22.682,152.802-63.866c40.813-41.184,63.291-95.939,63.291-154.181c0-58.242-22.478-112.998-63.291-154.182
		c-40.814-41.185-95.08-63.866-152.802-63.866c-57.721,0-111.987,22.682-152.802,63.866
		C310.384,391.251,287.907,446.007,287.907,504.249z"/>
	<polygon points="827.949,335.345 827.094,334.482 827.094,466.128 870.013,466.128 870.013,445.852 927.639,503.999 
		870.013,562.148 870.013,541.872 827.094,541.872 827.094,673.518 994.74,504.352 995.089,504 	"/>
	<polygon points="12.911,504 180.051,672.654 180.906,673.518 180.906,541.872 137.988,541.872 137.988,562.148 80.361,504 
		137.988,445.852 137.988,466.128 180.906,466.128 180.906,334.482 13.26,503.648 	"/>
	<polygon points="541.871,870.013 562.147,870.013 504,927.639 445.851,870.013 466.127,870.013 466.127,827.094 334.481,827.094 
		503.647,994.74 503.999,995.089 673.517,827.094 541.871,827.094 	"/>
	<polygon points="466.127,137.988 445.851,137.988 503.999,80.361 562.147,137.988 541.871,137.988 541.871,180.906 
		673.517,180.906 504.351,13.26 503.999,12.911 334.481,180.906 466.127,180.906 	"/>
</g>
</svg>
