<?xml version="1.0" encoding="UTF-8" standalone="no"?><!DOCTYPE svg PUBLIC "-//W3C//DTD SVG 1.1//EN" "http://www.w3.org/Graphics/SVG/1.1/DTD/svg11.dtd"><svg width="100%" height="100%" viewBox="0 0 300 301" version="1.1" xmlns="http://www.w3.org/2000/svg" xmlns:xlink="http://www.w3.org/1999/xlink" xml:space="preserve" xmlns:serif="http://www.serif.com/" style="fill-rule:evenodd;clip-rule:evenodd;stroke-linejoin:round;stroke-miterlimit:2;"><g id="chaos-thumb" transform="matrix(0.0375,0,0,0.0667887,0,0)"><rect x="0" y="0" width="8000" height="4500" style="fill:none;"/><g transform="matrix(8.47231,0,0,4.75697,-46.5977,-26.2112)"><path d="M477.626,6.369C356.805,6.369 235.951,52.469 143.772,144.651C-40.591,329.013 -40.591,627.996 143.772,812.359C328.134,996.721 627.118,996.721 811.48,812.359C995.843,627.996 995.843,329.013 811.48,144.651C719.297,52.469 598.443,6.369 477.626,6.369ZM477.626,85.536L477.884,85.796L613.172,219.781L507.964,219.781L507.964,185.536L524.239,185.536L477.626,139.572L431.143,185.536L447.418,185.536L447.418,219.781L342.076,219.781L477.626,85.536ZM233.355,232.151L370.855,232.151L332.834,270.562L346.114,283.974L357.443,276.551L369.422,269.781L381.659,263.791L394.293,258.453L407.184,253.896L420.201,250.25L433.614,247.255L447.026,245.041L447.547,245.041L447.547,280.328L447.284,280.458L431.659,283.453L416.426,287.75L401.843,293.088L387.651,299.729L373.98,307.281L361.089,316.005L348.718,325.901L337.13,336.708L326.322,348.557L316.559,360.926L307.834,374.078L300.28,387.88L293.643,402.072L288.434,416.916L284.134,432.151L281.143,447.906L281.009,448.296L245.984,448.296L246.114,447.646L248.326,434.234L251.193,420.822L254.968,407.541L259.397,394.651L264.734,381.89L270.593,369.651L277.364,357.671L284.655,346.083L271.243,332.411L233.355,370.953L233.355,232.151ZM584.655,232.151L722.026,232.151L722.026,370.822L684.005,332.541L670.593,346.083L678.018,357.671L684.655,369.651L690.518,381.89L695.855,394.651L700.28,407.671L704.059,420.822L706.922,434.234L709.134,447.646L709.268,448.296L674.239,448.296L674.109,447.906L671.114,432.281L666.818,417.046L661.609,402.203L655.101,387.88L647.418,374.208L638.822,361.057L629.059,348.687L618.251,336.838L606.659,325.901L594.159,316.135L581.143,307.411L567.601,299.729L553.405,293.088L538.822,287.75L523.589,283.453L508.093,280.458L507.701,280.328L507.701,245.041L508.226,245.171L521.634,247.385L535.047,250.38L548.197,254.156L560.959,258.583L573.718,263.791L585.826,269.911L597.809,276.551L609.268,283.974L622.547,270.432L584.655,232.151ZM477.626,304.286L494.814,305.067L511.609,307.541L528.018,311.708L543.901,317.437L559.134,324.729L573.589,333.453L587.13,343.739L599.893,355.328L611.48,368.218L621.634,382.021L630.23,396.604L637.522,411.968L643.118,427.984L647.155,444.521L649.759,461.447L650.543,478.765L649.759,496.083L647.155,513.01L643.118,529.546L637.522,545.562L630.23,560.926L621.634,575.51L611.48,589.312L599.893,602.203L587.13,613.791L573.589,623.947L559.134,632.801L543.901,640.093L528.018,645.822L511.609,649.859L494.814,652.463L477.626,653.244L460.439,652.463L443.772,649.859L427.234,645.822L411.351,640.093L396.243,632.801L381.793,623.947L368.118,613.791L355.489,602.203L343.772,589.312L333.743,575.51L325.151,560.926L317.859,545.562L312.13,529.546L308.093,513.01L305.489,496.083L304.839,478.765L305.489,461.447L308.093,444.521L312.259,427.984L317.859,412.099L325.151,396.734L333.743,382.021L343.772,368.349L355.489,355.328L368.118,343.739L381.793,333.453L396.243,324.729L411.351,317.437L427.234,311.708L443.772,307.541L460.439,305.067L477.626,304.286ZM218.901,342.958L218.901,448.296L184.655,448.296L184.655,432.021L138.693,478.505L184.655,524.989L184.655,508.843L218.901,508.843L218.901,614.051L218.38,613.401L84.655,478.505L84.918,478.114L218.901,342.958ZM736.351,342.958L737.001,343.609L870.593,478.505L870.334,478.765L736.351,614.051L736.351,508.843L770.726,508.843L770.726,524.989L816.689,478.505L770.726,432.021L770.726,448.296L736.351,448.296L736.351,342.958ZM245.984,508.843L281.009,508.843L281.143,509.104L284.005,524.859L288.301,540.224L293.643,554.937L300.151,569.39L307.701,583.062L316.426,596.213L326.322,608.713L337.001,620.432L348.589,631.369L361.089,641.265L373.98,649.989L387.651,657.671L401.843,664.312L416.426,669.651L431.659,673.947L447.284,676.942L447.547,677.072L447.547,712.359L447.026,712.359L433.614,710.146L420.201,707.151L407.184,703.375L394.293,698.817L381.659,693.609L369.422,687.489L357.443,680.849L346.114,673.296L332.834,686.968L370.593,725.25L233.226,725.25L233.226,586.578L271.243,624.989L284.655,611.317L277.234,599.729L270.593,587.75L264.605,575.38L259.397,562.619L254.839,549.729L251.064,536.447L248.197,522.906L246.114,509.234L245.984,508.843ZM674.368,508.843L709.268,508.843L709.268,509.234L707.051,522.906L704.189,536.447L700.409,549.729L695.984,562.619L690.647,575.25L684.655,587.75L678.018,599.729L670.593,611.317L684.005,624.859L722.026,586.447L722.026,725.25L584.526,725.25L622.547,686.838L609.134,673.296L597.809,680.849L585.826,687.489L573.589,693.479L560.959,698.687L548.068,703.244L535.047,707.021L521.634,710.146L508.226,712.229L507.701,712.359L507.701,676.942L508.093,676.812L523.589,673.947L538.822,669.521L553.405,664.182L567.601,657.541L581.272,649.859L594.293,641.135L606.659,631.369L618.38,620.432L629.189,608.713L638.951,596.083L647.676,583.062L655.23,569.26L661.739,554.937L666.947,540.224L671.243,524.859L674.239,509.104L674.368,508.843ZM342.076,737.229L447.418,737.229L447.418,771.604L431.143,771.604L477.626,817.567L524.239,771.604L507.964,771.604L507.964,737.229L613.172,737.229L477.626,871.474L477.364,871.213L342.076,737.229ZM463.961,325.896C461.844,325.905 459.775,326.648 458.057,328.258C451.526,334.366 444.444,344.978 445.903,362.189C448.453,392.316 474.106,401.86 456.199,434.271C456.199,434.271 441.63,432.685 413.151,438.153C389.167,442.76 379.114,439.695 368.586,445.243C350.451,454.802 356.248,478.128 374.328,485.589C358.878,495.536 354.368,518.658 380.913,528.804C366.058,544.147 365.841,563.575 389.183,570.162C373.658,586.326 388.043,605.781 404.541,605.781C529.227,605.781 508.5,598.548 547.523,596.665C597.275,594.265 595.919,564.991 596.481,532.518C597.037,500.045 606.604,474.738 559.002,460.436C548.182,457.184 538.437,448.421 528.114,413.845C518.591,381.961 496.573,378.621 488.778,365.565C483.959,358.528 477.039,342.194 472.572,331.466C471.065,327.843 467.5,325.879 463.961,325.896Z" style="fill-rule:nonzero;"/></g></g></svg>