<?xml version="1.0" encoding="UTF-8" standalone="no"?><!DOCTYPE svg PUBLIC "-//W3C//DTD SVG 1.1//EN" "http://www.w3.org/Graphics/SVG/1.1/DTD/svg11.dtd"><svg width="100%" height="100%" viewBox="0 0 300 301" version="1.1" xmlns="http://www.w3.org/2000/svg" xmlns:xlink="http://www.w3.org/1999/xlink" xml:space="preserve" xmlns:serif="http://www.serif.com/" style="fill-rule:evenodd;clip-rule:evenodd;stroke-linejoin:round;stroke-miterlimit:2;"><g transform="matrix(1,0,0,1,-335.673,-6.36935)"><g id="chaos-lightning" transform="matrix(0.0375,0,0,0.0667887,335.673,6.36935)"><rect x="0" y="0" width="8000" height="4500" style="fill:none;"/><g transform="matrix(35.3013,0,0,19.8207,-21608.7,-8233.96)"><path d="M725.433,415.628C696.437,415.628 667.432,426.692 645.308,448.815C601.061,493.062 601.061,564.818 645.308,609.065C689.555,653.312 761.311,653.313 805.558,609.065C849.805,564.818 849.805,493.062 805.558,448.815C783.435,426.692 754.43,415.628 725.433,415.628ZM725.433,434.628L725.496,434.69L757.964,466.847L732.715,466.847L732.715,458.628L736.621,458.628L725.433,447.597L714.277,458.628L718.183,458.628L718.183,466.847L692.902,466.847L725.433,434.628ZM666.808,469.815L699.808,469.815L690.683,479.034L693.871,482.253L696.59,480.472L699.464,478.847L702.402,477.409L705.433,476.128L708.527,475.034L711.652,474.159L714.871,473.44L718.09,472.909L718.215,472.909L718.215,481.378L718.152,481.409L714.402,482.128L710.746,483.159L707.246,484.44L703.839,486.034L700.558,487.847L697.464,489.94L694.496,492.315L691.715,494.909L689.121,497.753L686.777,500.722L684.683,503.878L682.871,507.19L681.277,510.597L680.027,514.159L678.996,517.815L678.277,521.597L678.246,521.69L669.839,521.69L669.871,521.534L670.402,518.315L671.09,515.097L671.996,511.909L673.058,508.815L674.339,505.753L675.746,502.815L677.371,499.94L679.121,497.159L675.902,493.878L666.808,503.128L666.808,469.815ZM751.121,469.815L784.09,469.815L784.09,503.097L774.964,493.909L771.746,497.159L773.527,499.94L775.121,502.815L776.527,505.753L777.808,508.815L778.871,511.94L779.777,515.097L780.464,518.315L780.996,521.534L781.027,521.69L772.621,521.69L772.59,521.597L771.871,517.847L770.839,514.19L769.59,510.628L768.027,507.19L766.183,503.909L764.121,500.753L761.777,497.784L759.183,494.94L756.402,492.315L753.402,489.972L750.277,487.878L747.027,486.034L743.621,484.44L740.121,483.159L736.464,482.128L732.746,481.409L732.652,481.378L732.652,472.909L732.777,472.94L735.996,473.472L739.215,474.19L742.371,475.097L745.433,476.159L748.496,477.409L751.402,478.878L754.277,480.472L757.027,482.253L760.215,479.003L751.121,469.815ZM725.433,487.128L729.558,487.315L733.59,487.909L737.527,488.909L741.339,490.284L744.996,492.034L748.464,494.128L751.715,496.597L754.777,499.378L757.558,502.472L759.996,505.784L762.058,509.284L763.808,512.972L765.152,516.815L766.121,520.784L766.746,524.847L766.933,529.003L766.746,533.159L766.121,537.222L765.152,541.19L763.808,545.034L762.058,548.722L759.996,552.222L757.558,555.534L754.777,558.628L751.715,561.409L748.464,563.847L744.996,565.972L741.339,567.722L737.527,569.097L733.59,570.065L729.558,570.69L725.433,570.878L721.308,570.69L717.308,570.065L713.339,569.097L709.527,567.722L705.902,565.972L702.433,563.847L699.152,561.409L696.121,558.628L693.308,555.534L690.902,552.222L688.839,548.722L687.09,545.034L685.715,541.19L684.746,537.222L684.121,533.159L683.964,529.003L684.121,524.847L684.746,520.784L685.746,516.815L687.09,513.003L688.839,509.315L690.902,505.784L693.308,502.503L696.121,499.378L699.152,496.597L702.433,494.128L705.902,492.034L709.527,490.284L713.339,488.909L717.308,487.909L721.308,487.315L725.433,487.128ZM739.683,492.534L706.683,534.659L722.496,534.909C722.496,534.909 713.526,564.568 713.277,565.315C713.028,566.063 744.183,524.69 744.183,524.69L728.964,524.69L739.683,492.534ZM663.339,496.409L663.339,521.69L655.121,521.69L655.121,517.784L644.09,528.94L655.121,540.097L655.121,536.222L663.339,536.222L663.339,561.472L663.215,561.315L631.121,528.94L631.183,528.847L663.339,496.409ZM787.527,496.409L787.683,496.565L819.746,528.94L819.683,529.003L787.527,561.472L787.527,536.222L795.777,536.222L795.777,540.097L806.808,528.94L795.777,517.784L795.777,521.69L787.527,521.69L787.527,496.409ZM669.839,536.222L678.246,536.222L678.277,536.284L678.964,540.065L679.996,543.753L681.277,547.284L682.839,550.753L684.652,554.034L686.746,557.19L689.121,560.19L691.683,563.003L694.464,565.628L697.464,568.003L700.558,570.097L703.839,571.94L707.246,573.534L710.746,574.815L714.402,575.847L718.152,576.565L718.215,576.597L718.215,585.065L718.09,585.065L714.871,584.534L711.652,583.815L708.527,582.909L705.433,581.815L702.402,580.565L699.464,579.097L696.59,577.503L693.871,575.69L690.683,578.972L699.746,588.159L666.777,588.159L666.777,554.878L675.902,564.097L679.121,560.815L677.339,558.034L675.746,555.159L674.308,552.19L673.058,549.128L671.964,546.034L671.058,542.847L670.371,539.597L669.871,536.315L669.839,536.222ZM772.652,536.222L781.027,536.222L781.027,536.315L780.496,539.597L779.808,542.847L778.902,546.034L777.839,549.128L776.558,552.159L775.121,555.159L773.527,558.034L771.746,560.815L774.964,564.065L784.09,554.847L784.09,588.159L751.09,588.159L760.215,578.94L756.996,575.69L754.277,577.503L751.402,579.097L748.464,580.534L745.433,581.784L742.339,582.878L739.215,583.784L735.996,584.534L732.777,585.034L732.652,585.065L732.652,576.565L732.746,576.534L736.464,575.847L740.121,574.784L743.621,573.503L747.027,571.909L750.308,570.065L753.433,567.972L756.402,565.628L759.215,563.003L761.808,560.19L764.152,557.159L766.246,554.034L768.058,550.722L769.621,547.284L770.871,543.753L771.902,540.065L772.621,536.284L772.652,536.222ZM692.902,591.034L718.183,591.034L718.183,599.284L714.277,599.284L725.433,610.315L736.621,599.284L732.715,599.284L732.715,591.034L757.964,591.034L725.433,623.253L725.371,623.19L692.902,591.034Z" style="fill-rule:nonzero;"/></g></g></g></svg>