<?xml version="1.0" encoding="UTF-8" standalone="no"?><!DOCTYPE svg PUBLIC "-//W3C//DTD SVG 1.1//EN" "http://www.w3.org/Graphics/SVG/1.1/DTD/svg11.dtd"><svg width="100%" height="100%" viewBox="0 0 130 1080" version="1.1" xmlns="http://www.w3.org/2000/svg" xmlns:xlink="http://www.w3.org/1999/xlink" xml:space="preserve" xmlns:serif="http://www.serif.com/" style="fill-rule:evenodd;clip-rule:evenodd;stroke-linejoin:round;stroke-miterlimit:2;"><path d="M65.03,0L130,149.937L93.04,136.004L81.341,540L93.04,943.996L130,930.063L65.03,1080L0,930.063L36.96,943.996L48.658,540L36.96,136.004L0,149.937L65.03,0ZM64.969,38.178L18.632,127.278C18.616,127.33 24.705,124.996 32.133,122.171C39.562,119.345 45.593,117.086 45.604,117.113L49.514,540.446L45.604,962.887C45.593,962.914 39.562,960.655 32.133,957.829C24.705,955.004 18.616,952.67 18.632,952.722L64.969,1041.82L65.03,1041.77L111.367,952.722C111.384,952.67 105.265,955.004 97.836,957.829C90.407,960.655 84.407,962.913 84.396,962.887L80.486,540.446L84.396,117.113C84.407,117.086 90.407,119.345 97.836,122.171C105.265,124.996 111.384,127.33 111.367,127.278L65.03,38.228L64.969,38.178Z" style="fill:url(#_Linear1);"/><defs><linearGradient id="_Linear1" x1="0" y1="0" x2="1" y2="0" gradientUnits="userSpaceOnUse" gradientTransform="matrix(6.61309e-14,-1080,8972.31,5.49395e-13,65,1080)"><stop offset="0" style="stop-color:#fff;stop-opacity:1"/><stop offset="0.26" style="stop-color:#c2c2c2;stop-opacity:1"/><stop offset="0.5" style="stop-color:#000;stop-opacity:1"/><stop offset="0.75" style="stop-color:#c0c0c0;stop-opacity:1"/><stop offset="1" style="stop-color:#fff;stop-opacity:1"/></linearGradient></defs></svg>