<?xml version="1.0" encoding="UTF-8" standalone="no"?><!DOCTYPE svg PUBLIC "-//W3C//DTD SVG 1.1//EN" "http://www.w3.org/Graphics/SVG/1.1/DTD/svg11.dtd"><svg width="100%" height="100%" viewBox="0 0 2434 464" version="1.1" xmlns="http://www.w3.org/2000/svg" xmlns:xlink="http://www.w3.org/1999/xlink" xml:space="preserve" xmlns:serif="http://www.serif.com/" style="fill-rule:evenodd;clip-rule:evenodd;stroke-linejoin:round;stroke-miterlimit:2;"><g id="Artboard1" transform="matrix(0.540889,0,0,0.103111,0,0)"><rect x="0" y="0" width="4500" height="4500" style="fill:none;"/><g transform="matrix(1.84881,0,0,9.69828,0,0)"><path d="M333.329,245.625L333.329,364.356C304.619,388.686 266.664,403.284 225.789,403.284C134.795,403.284 60.344,330.78 60.344,242.219C60.344,153.657 134.795,81.64 225.789,81.64C268.124,81.64 307.052,96.724 336.248,122.514L342.574,116.188C311.432,88.939 270.557,72.394 225.789,72.394C129.929,72.394 51.099,148.791 51.099,242.219C51.099,335.646 129.929,412.53 225.789,412.53C270.557,412.53 311.918,395.499 343.061,368.249L343.061,245.625L333.329,245.625ZM452.546,51.47L452.546,412.53L462.279,412.53L462.279,51.47L452.546,51.47ZM664.705,402.798C599.987,402.798 553.273,355.111 553.273,286.5L781.49,286.5C781.49,213.509 734.776,160.956 664.705,160.956C595.121,160.956 543.541,213.509 543.541,286.5C543.541,359.977 595.121,412.53 664.705,412.53C703.634,412.53 737.696,397.932 760.566,373.115L753.754,366.302C732.83,389.659 701.201,402.798 664.705,402.798ZM664.705,170.688C726.991,170.688 767.379,213.996 771.758,276.767L553.76,276.767C557.653,213.996 602.907,170.688 664.705,170.688ZM974.185,160.956C921.632,161.929 884.163,187.719 868.106,232L868.106,160.956L858.373,160.956L858.373,412.53L868.106,412.53L868.106,275.794C872.972,211.076 911.413,172.148 974.185,170.688C1030.14,170.688 1063.23,203.777 1063.23,260.223L1063.23,412.53L1072.96,412.53L1072.96,260.223C1072.96,197.938 1036.47,160.956 974.185,160.956ZM1581.95,412.53L1593.14,412.53L1435.49,72.394L1424.78,72.394L1269.07,412.53L1280.75,412.53L1327.95,308.883L1534.27,308.883L1581.95,412.53ZM1332.33,299.151L1430.13,83.586L1529.4,299.151L1332.33,299.151ZM1653.97,51.47L1653.97,412.53L1663.7,412.53L1663.7,51.47L1653.97,51.47ZM1775.62,51.47L1775.62,412.53L1785.35,412.53L1785.35,51.47L1775.62,51.47ZM2069.53,412.53L2068.55,244.652C2068.07,193.558 2036.93,160.956 1979.02,160.956C1943.5,160.956 1913.33,175.554 1885.11,197.938L1890.94,205.723C1918.19,184.313 1945.44,170.688 1979.02,170.688C2032.06,170.688 2058.34,198.424 2058.82,244.652L2058.82,275.308L1965.4,275.308C1907.98,275.308 1871.97,299.151 1871.97,340.026C1871.97,381.874 1905.06,412.53 1953.72,412.53C1998.97,412.53 2036.93,395.012 2059.31,355.597L2059.8,412.53L2069.53,412.53ZM1954.2,402.798C1909.92,402.798 1881.7,377.008 1881.7,340.026C1881.7,304.99 1911.87,285.04 1965.4,285.04L2058.82,285.04L2059.31,333.7C2039.36,383.334 2002.86,402.798 1954.2,402.798ZM2284.12,160.956C2231.57,161.929 2194.1,187.719 2178.04,232L2178.04,160.956L2168.31,160.956L2168.31,412.53L2178.04,412.53L2178.04,275.794C2182.91,211.076 2221.35,172.148 2284.12,170.688C2340.08,170.688 2373.17,203.777 2373.17,260.223L2373.17,412.53L2382.9,412.53L2382.9,260.223C2382.9,197.938 2346.41,160.956 2284.12,160.956Z" style="fill-rule:nonzero;"/></g></g></svg>