<?xml version="1.0" encoding="UTF-8" standalone="no"?><!DOCTYPE svg PUBLIC "-//W3C//DTD SVG 1.1//EN" "http://www.w3.org/Graphics/SVG/1.1/DTD/svg11.dtd"><svg width="100%" height="100%" viewBox="0 0 875 875" version="1.1" xmlns="http://www.w3.org/2000/svg" xmlns:xlink="http://www.w3.org/1999/xlink" xml:space="preserve" xmlns:serif="http://www.serif.com/" style="fill-rule:evenodd;clip-rule:evenodd;stroke-linejoin:round;stroke-miterlimit:2;"><g id="Circle-1" serif:id="Circle 1" transform="matrix(0.109375,0,0,0.194444,-897.786,0)"><rect x="8208.33" y="0" width="8000" height="4500" style="fill:none;"/><g transform="matrix(40.0972,0,0,22.5553,-3923.42,-9734.5)"><path d="M402.31,436.334C377.995,436.334 353.687,445.605 335.136,464.156C298.033,501.259 298.033,561.414 335.136,598.517C372.238,635.619 432.394,635.619 469.496,598.517C506.599,561.414 506.599,501.259 469.496,464.156C450.945,445.605 426.624,436.334 402.31,436.334ZM402.31,484.733C414.237,484.733 426.166,489.286 435.266,498.386C453.466,516.586 453.466,546.086 435.266,564.286C417.066,582.486 387.553,582.486 369.353,564.286C351.153,546.086 351.153,516.586 369.353,498.386C378.453,489.286 390.383,484.733 402.31,484.733Z" style="fill-rule:nonzero;"/></g></g></svg>